PathFileType	4	(X/Y/Z)	C:\Users\italobelli\Desktop\GitHub\PTbot_officialCBL\Personal_Results\SHRUG01_noisy2.trc
DataRate	CameraRate	NumFrames	NumMarkers	Units	OrigDataRate	OrigDataStartFrame	OrigNumFrames
110.888889	110.888889	46	9	m	110.888889	126	500
Frame#	Time		gu		centelbow		EpL		centpxt8		centijc7		ij		ts		aa		ai
			X1	Y1	Z1	X2	Y2	Z2	X3	Y3	Z3	X4	Y4	Z4	X5	Y5	Z5	X6	Y6	Z6	X7	Y7	Z7	X8	Y8	Z8	X9	Y9	Z9

126	1.1273	-0.076963	0.0053455	0.16667	-0.082305	-0.23939	0.20508	-0.061915	-0.23205	0.22882	-0.046816	-0.15316	-0.008669	-0.046816	0.031938	-0.008669	0	0	0	-0.13412	0.043111	0.055306	-0.10146	0.048074	0.16918	-0.15689	-0.065882	0.071963
127	1.1363	-0.0766	0.0064747	0.16648	-0.081561	-0.23803	0.20582	-0.061131	-0.23058	0.22948	-0.046816	-0.15316	-0.008669	-0.046816	0.031938	-0.008669	0	0	0	-0.13399	0.043425	0.055187	-0.10113	0.049125	0.16888	-0.15663	-0.065397	0.072581
128	1.1453	-0.076223	0.0076448	0.16628	-0.080794	-0.23661	0.20659	-0.060322	-0.22906	0.23016	-0.046816	-0.15316	-0.008669	-0.046816	0.031938	-0.008669	0	0	0	-0.13386	0.043745	0.055065	-0.10079	0.050209	0.16858	-0.15635	-0.064902	0.073224
129	1.1543	-0.075831	0.0088528	0.16607	-0.080006	-0.23514	0.20737	-0.05949	-0.22748	0.23086	-0.046816	-0.15316	-0.008669	-0.046816	0.031938	-0.008669	0	0	0	-0.13373	0.044069	0.05494	-0.10044	0.051323	0.16827	-0.15607	-0.064397	0.07389
130	1.1633	-0.075427	0.010095	0.16586	-0.079199	-0.23363	0.20816	-0.058637	-0.22585	0.23157	-0.046816	-0.15316	-0.008669	-0.046816	0.031938	-0.008669	0	0	0	-0.1336	0.044397	0.054812	-0.10008	0.052464	0.16794	-0.15579	-0.063883	0.074579
131	1.1723	-0.075011	0.01137	0.16564	-0.078375	-0.23207	0.20897	-0.057766	-0.22418	0.23229	-0.046816	-0.15316	-0.008669	-0.046816	0.031938	-0.008669	0	0	0	-0.13347	0.044728	0.054681	-0.099709	0.05363	0.16761	-0.15549	-0.063361	0.075286
132	1.1814	-0.074585	0.012672	0.16541	-0.077536	-0.23047	0.20979	-0.056879	-0.22246	0.23302	-0.046816	-0.15316	-0.008669	-0.046816	0.031938	-0.008669	0	0	0	-0.13334	0.045063	0.054548	-0.09933	0.054818	0.16727	-0.15519	-0.062832	0.076011
133	1.1904	-0.07415	0.014	0.16518	-0.076685	-0.22884	0.21062	-0.055978	-0.22071	0.23376	-0.046816	-0.15316	-0.008669	-0.046816	0.031938	-0.008669	0	0	0	-0.1332	0.0454	0.054412	-0.098943	0.056025	0.16692	-0.15489	-0.062297	0.076751
134	1.1994	-0.073707	0.015351	0.16495	-0.075824	-0.22717	0.21146	-0.055066	-0.21892	0.2345	-0.046816	-0.15316	-0.008669	-0.046816	0.031938	-0.008669	0	0	0	-0.13307	0.04574	0.054275	-0.09855	0.05725	0.16656	-0.15458	-0.061757	0.077505
135	1.2084	-0.073258	0.01672	0.16471	-0.074955	-0.22548	0.2123	-0.054144	-0.21711	0.23525	-0.046816	-0.15316	-0.008669	-0.046816	0.031938	-0.008669	0	0	0	-0.13294	0.046081	0.054135	-0.098151	0.058489	0.1662	-0.15427	-0.061213	0.078269
136	1.2174	-0.072803	0.018105	0.16447	-0.074079	-0.22377	0.21315	-0.053216	-0.21527	0.236	-0.046816	-0.15316	-0.008669	-0.046816	0.031938	-0.008669	0	0	0	-0.1328	0.046424	0.053994	-0.097748	0.059739	0.16583	-0.15396	-0.060664	0.079042
137	1.2265	-0.072344	0.019503	0.16423	-0.0732	-0.22204	0.214	-0.052283	-0.21341	0.23675	-0.046816	-0.15316	-0.008669	-0.046816	0.031938	-0.008669	0	0	0	-0.13267	0.046769	0.053851	-0.097341	0.061	0.16546	-0.15364	-0.060113	0.079821
138	1.2355	-0.071883	0.020911	0.16398	-0.072319	-0.22029	0.21485	-0.051348	-0.21154	0.23749	-0.046816	-0.15316	-0.008669	-0.046816	0.031938	-0.008669	0	0	0	-0.13253	0.047113	0.053706	-0.096932	0.062266	0.16509	-0.15333	-0.059561	0.080606
139	1.2445	-0.07142	0.022325	0.16374	-0.071439	-0.21853	0.2157	-0.050413	-0.20966	0.23824	-0.046816	-0.15316	-0.008669	-0.046816	0.031938	-0.008669	0	0	0	-0.1324	0.047458	0.053561	-0.096522	0.063537	0.16471	-0.15301	-0.059007	0.081392
140	1.2535	-0.070957	0.023743	0.1635	-0.070561	-0.21677	0.21654	-0.049481	-0.20777	0.23898	-0.046816	-0.15316	-0.008669	-0.046816	0.031938	-0.008669	0	0	0	-0.13227	0.047803	0.053414	-0.096111	0.06481	0.16432	-0.1527	-0.058454	0.082179
141	1.2625	-0.070495	0.02516	0.16325	-0.069688	-0.215	0.21737	-0.048553	-0.20588	0.23972	-0.046816	-0.15316	-0.008669	-0.046816	0.031938	-0.008669	0	0	0	-0.13214	0.048147	0.053267	-0.095701	0.066082	0.16394	-0.15238	-0.057901	0.082964
142	1.2715	-0.070035	0.026575	0.16301	-0.068823	-0.21324	0.2182	-0.047632	-0.204	0.24045	-0.046816	-0.15316	-0.008669	-0.046816	0.031938	-0.008669	0	0	0	-0.13201	0.048491	0.053119	-0.095293	0.06735	0.16356	-0.15207	-0.05735	0.083746
143	1.2806	-0.069579	0.027984	0.16277	-0.067966	-0.21149	0.21902	-0.046721	-0.20212	0.24117	-0.046816	-0.15316	-0.008669	-0.046816	0.031938	-0.008669	0	0	0	-0.13188	0.048833	0.05297	-0.094888	0.068612	0.16318	-0.15176	-0.056802	0.084521
144	1.2896	-0.069128	0.029384	0.16253	-0.067121	-0.20974	0.21983	-0.045821	-0.20026	0.24188	-0.046816	-0.15316	-0.008669	-0.046816	0.031938	-0.008669	0	0	0	-0.13175	0.049173	0.052821	-0.094487	0.069865	0.16279	-0.15146	-0.056257	0.085288
145	1.2986	-0.068682	0.030772	0.16229	-0.066289	-0.20801	0.22062	-0.044935	-0.19841	0.24258	-0.046816	-0.15316	-0.008669	-0.046816	0.031938	-0.008669	0	0	0	-0.13163	0.04951	0.052671	-0.09409	0.071107	0.16241	-0.15116	-0.055717	0.086045
146	1.3076	-0.068244	0.032144	0.16206	-0.065473	-0.2063	0.2214	-0.044066	-0.19658	0.24326	-0.046816	-0.15316	-0.008669	-0.046816	0.031938	-0.008669	0	0	0	-0.1315	0.049845	0.052522	-0.0937	0.072335	0.16204	-0.15086	-0.055181	0.086789
147	1.3166	-0.067814	0.033498	0.16183	-0.064675	-0.20461	0.22216	-0.043215	-0.19478	0.24393	-0.046816	-0.15316	-0.008669	-0.046816	0.031938	-0.008669	0	0	0	-0.13138	0.050177	0.052373	-0.093316	0.073546	0.16166	-0.15057	-0.054652	0.087519
148	1.3257	-0.067394	0.03483	0.16161	-0.063897	-0.20295	0.2229	-0.042385	-0.193	0.24458	-0.046816	-0.15316	-0.008669	-0.046816	0.031938	-0.008669	0	0	0	-0.13127	0.050506	0.052225	-0.092941	0.074739	0.16129	-0.15029	-0.05413	0.088232
149	1.3347	-0.066986	0.036137	0.16139	-0.063141	-0.20132	0.22362	-0.041578	-0.19127	0.24521	-0.046816	-0.15316	-0.008669	-0.046816	0.031938	-0.008669	0	0	0	-0.13115	0.05083	0.052076	-0.092574	0.07591	0.16093	-0.15002	-0.053616	0.088927
150	1.3437	-0.066589	0.037416	0.16118	-0.06241	-0.19973	0.22432	-0.040796	-0.18957	0.24582	-0.046816	-0.15316	-0.008669	-0.046816	0.031938	-0.008669	0	0	0	-0.13104	0.051151	0.051929	-0.092218	0.077057	0.16057	-0.14975	-0.053111	0.089601
151	1.3527	-0.066206	0.038664	0.16098	-0.061705	-0.19817	0.22499	-0.040043	-0.18791	0.2464	-0.046816	-0.15316	-0.008669	-0.046816	0.031938	-0.008669	0	0	0	-0.13093	0.051466	0.051783	-0.091873	0.078177	0.16021	-0.14949	-0.052615	0.090251
152	1.3617	-0.065838	0.039879	0.16078	-0.061028	-0.19666	0.22564	-0.039319	-0.1863	0.24697	-0.046816	-0.15316	-0.008669	-0.046816	0.031938	-0.008669	0	0	0	-0.13082	0.051776	0.051637	-0.09154	0.079268	0.15987	-0.14925	-0.05213	0.090877
153	1.3707	-0.065486	0.041055	0.16059	-0.060383	-0.1952	0.22626	-0.038628	-0.18475	0.2475	-0.046816	-0.15316	-0.008669	-0.046816	0.031938	-0.008669	0	0	0	-0.13072	0.052081	0.051493	-0.09122	0.080327	0.15953	-0.14901	-0.051656	0.091475
154	1.3798	-0.065151	0.042192	0.16041	-0.059771	-0.19379	0.22684	-0.037972	-0.18325	0.24802	-0.046816	-0.15316	-0.008669	-0.046816	0.031938	-0.008669	0	0	0	-0.13062	0.05238	0.05135	-0.090915	0.081352	0.1592	-0.14879	-0.051194	0.092044
155	1.3888	-0.064834	0.043284	0.16024	-0.059193	-0.19244	0.22739	-0.037353	-0.18181	0.2485	-0.046816	-0.15316	-0.008669	-0.046816	0.031938	-0.008669	0	0	0	-0.13053	0.052672	0.051209	-0.090624	0.08234	0.15889	-0.14858	-0.050746	0.092582
156	1.3978	-0.064538	0.04433	0.16008	-0.058654	-0.19114	0.22791	-0.036773	-0.18044	0.24895	-0.046816	-0.15316	-0.008669	-0.046816	0.031938	-0.008669	0	0	0	-0.13043	0.052958	0.05107	-0.090351	0.083288	0.15858	-0.14838	-0.050311	0.093086
157	1.4068	-0.064262	0.045327	0.15994	-0.058153	-0.18991	0.22839	-0.036234	-0.17914	0.24936	-0.046816	-0.15316	-0.008669	-0.046816	0.031938	-0.008669	0	0	0	-0.13035	0.053236	0.050932	-0.090094	0.084194	0.15828	-0.1482	-0.049892	0.093554
158	1.4158	-0.064009	0.04627	0.1598	-0.057695	-0.18876	0.22884	-0.03574	-0.17791	0.24975	-0.046816	-0.15316	-0.008669	-0.046816	0.031938	-0.008669	0	0	0	-0.13027	0.053506	0.050797	-0.089856	0.085055	0.158	-0.14803	-0.049488	0.093985
159	1.4248	-0.063779	0.047157	0.15967	-0.05728	-0.18767	0.22924	-0.035292	-0.17677	0.2501	-0.046816	-0.15316	-0.008669	-0.046816	0.031938	-0.008669	0	0	0	-0.13019	0.053769	0.050664	-0.089638	0.085869	0.15773	-0.14787	-0.049101	0.094375
160	1.4339	-0.063574	0.047985	0.15956	-0.056911	-0.18666	0.2296	-0.034893	-0.1757	0.25041	-0.046816	-0.15316	-0.008669	-0.046816	0.031938	-0.008669	0	0	0	-0.13012	0.054023	0.050534	-0.089439	0.086634	0.15747	-0.14773	-0.048732	0.094724
161	1.4429	-0.063396	0.048751	0.15946	-0.05659	-0.18573	0.22992	-0.034544	-0.17473	0.25068	-0.046816	-0.15316	-0.008669	-0.046816	0.031938	-0.008669	0	0	0	-0.13005	0.054268	0.050406	-0.089263	0.087345	0.15723	-0.14761	-0.048381	0.095028
162	1.4519	-0.063244	0.049451	0.15938	-0.05632	-0.18489	0.23019	-0.034249	-0.17384	0.25091	-0.046816	-0.15316	-0.008669	-0.046816	0.031938	-0.008669	0	0	0	-0.12999	0.054504	0.050281	-0.089109	0.088002	0.157	-0.14751	-0.048049	0.095286
163	1.4609	-0.063121	0.050082	0.15931	-0.056103	-0.18414	0.23041	-0.034009	-0.17306	0.2511	-0.046816	-0.15316	-0.008669	-0.046816	0.031938	-0.008669	0	0	0	-0.12993	0.05473	0.050159	-0.088979	0.088601	0.15679	-0.14743	-0.047738	0.095495
164	1.4699	-0.063028	0.050642	0.15926	-0.05594	-0.18348	0.23059	-0.033827	-0.17237	0.25125	-0.046816	-0.15316	-0.008669	-0.046816	0.031938	-0.008669	0	0	0	-0.12988	0.054946	0.050041	-0.088873	0.08914	0.15659	-0.14736	-0.047448	0.095654
165	1.479	-0.062966	0.051127	0.15922	-0.055833	-0.18292	0.23071	-0.033705	-0.17179	0.25135	-0.046816	-0.15316	-0.008669	-0.046816	0.031938	-0.008669	0	0	0	-0.12984	0.055151	0.049926	-0.088793	0.089617	0.15642	-0.14732	-0.047179	0.095761
166	1.488	-0.062936	0.051533	0.1592	-0.055786	-0.18246	0.23078	-0.033646	-0.17132	0.2514	-0.046816	-0.15316	-0.008669	-0.046816	0.031938	-0.008669	0	0	0	-0.1298	0.055346	0.049814	-0.08874	0.090028	0.15626	-0.1473	-0.046933	0.095812
167	1.497	-0.06294	0.051859	0.1592	-0.0558	-0.18211	0.23079	-0.033651	-0.17097	0.2514	-0.046816	-0.15316	-0.008669	-0.046816	0.031938	-0.008669	0	0	0	-0.12977	0.055529	0.049706	-0.088714	0.090371	0.15612	-0.1473	-0.046712	0.095807
168	1.506	-0.062973	0.052113	0.15921	-0.05587	-0.18186	0.23075	-0.033715	-0.17072	0.25136	-0.046816	-0.15316	-0.008669	-0.046816	0.031938	-0.008669	0	0	0	-0.12974	0.0557	0.049601	-0.088713	0.090653	0.156	-0.14731	-0.046512	0.095751
169	1.515	-0.063015	0.052333	0.15923	-0.055969	-0.18164	0.23068	-0.033811	-0.17051	0.25129	-0.046816	-0.15316	-0.008669	-0.046816	0.031938	-0.008669	0	0	0	-0.12972	0.055863	0.049496	-0.088721	0.090904	0.15589	-0.14735	-0.046327	0.095675
170	1.524	-0.063065	0.052524	0.15926	-0.056096	-0.18146	0.23059	-0.033936	-0.17034	0.2512	-0.046816	-0.15316	-0.008669	-0.046816	0.031938	-0.008669	0	0	0	-0.12971	0.056018	0.049391	-0.088738	0.091125	0.15578	-0.14739	-0.046156	0.09558
171	1.5331	-0.063123	0.052685	0.1593	-0.056249	-0.18131	0.23047	-0.034089	-0.17021	0.25109	-0.046816	-0.15316	-0.008669	-0.046816	0.031938	-0.008669	0	0	0	-0.1297	0.056163	0.049286	-0.088764	0.091318	0.15568	-0.14745	-0.045999	0.095467
